<svg width="358" height="20" viewBox="0 0 358 20" fill="none" xmlns="http://www.w3.org/2000/svg">
<path d="M339.914 7.59185C343.863 4.209 348.327 0 358 0V6.5C353.045 6.5 351.025 8.23026 347.267 11.4475L347.048 11.635C343.099 15.0178 338.184 19.2268 328.511 19.2268C318.843 19.2268 313.928 15.0186 309.979 11.6374L309.978 11.6366C306.078 8.29752 303.625 6.40895 298.575 6.40895C293.53 6.40895 291.081 8.29752 287.186 11.635L287.182 11.6382C283.234 15.0205 278.323 19.2268 268.658 19.2268C258.994 19.2268 254.083 15.0163 250.138 11.6334C246.248 8.29752 243.799 6.40895 238.763 6.40895C233.722 6.40895 231.273 8.29752 227.382 11.6334L227.376 11.6385C223.428 15.0205 218.518 19.2268 208.854 19.2268C199.19 19.2268 194.279 15.0178 190.335 11.635C186.444 8.29752 183.995 6.40895 178.954 6.40895C173.918 6.40895 171.469 8.29595 167.579 11.6334C163.634 15.0163 158.723 19.2268 149.055 19.2268C139.391 19.2268 134.48 15.0178 130.535 11.635C126.645 8.29752 124.196 6.40895 119.155 6.40895C114.119 6.40895 111.675 8.29752 107.784 11.6334L107.779 11.6373C103.835 15.0195 98.9293 19.2268 89.269 19.2268C79.6095 19.2268 74.6988 15.0163 70.7586 11.6319C66.8723 8.29595 64.4283 6.40895 59.3963 6.40895C54.3554 6.40895 51.9068 8.29752 48.016 11.635C44.0714 15.0178 39.1607 19.2268 29.4967 19.2268C19.8327 19.2268 14.922 15.0163 10.9773 11.6334C7.08658 8.29752 5.03644 6.5 0 6.5V0C9.66403 0 14.1762 4.21056 18.1209 7.59341C22.0117 10.9293 24.4603 12.8179 29.4967 12.8179C34.5331 12.8179 36.9817 10.9309 40.8725 7.59341C44.8172 4.21056 49.7278 0 59.3963 0C69.0558 0 73.962 4.21056 77.9022 7.59341C81.7885 10.9293 84.237 12.8179 89.269 12.8179C94.3054 12.8179 96.7495 10.9293 100.64 7.59341L100.645 7.58949C104.589 4.20731 109.495 0 119.155 0C128.824 0 133.734 4.21056 137.679 7.59341C141.57 10.9309 144.018 12.8179 149.055 12.8179C154.096 12.8179 156.544 10.9293 160.435 7.59185C164.38 4.209 169.29 0 178.954 0C188.623 0 193.534 4.21056 197.478 7.59341C201.369 10.9309 203.818 12.8179 208.854 12.8179C213.899 12.8179 216.348 10.9293 220.239 7.59185L220.242 7.58869C224.191 4.20638 229.102 0 238.763 0C248.427 0 253.337 4.21056 257.282 7.59341C261.173 10.9293 263.621 12.8179 268.658 12.8179C273.699 12.8179 276.152 10.9293 280.042 7.59341L280.043 7.59305C283.992 4.21026 288.907 0 298.575 0C308.248 0 313.163 4.209 317.113 7.59185C321.012 10.9293 323.461 12.8179 328.511 12.8179C333.561 12.8179 336.014 10.9293 339.914 7.59185Z" fill="#A9191E"/>
</svg>
