<svg width="145" height="23" viewBox="0 0 145 23" fill="none" xmlns="http://www.w3.org/2000/svg">
<g opacity="0.9" filter="url(#filter0_n_163_2)">
<path fill-rule="evenodd" clip-rule="evenodd" d="M6.96951 7.14957C7.61359 7.06816 8.14535 6.6848 8.42257 6.09635L10.967 0.680931C11.3936 -0.226977 12.6653 -0.226977 13.093 0.680931L15.6374 6.09635C16.1516 7.19181 17.1276 7.1578 18.1437 7.28559V7.2825L22.0938 7.77922V7.78231L23.0265 7.8998C24.0375 8.02655 24.4012 9.24981 23.6871 9.9207L19.3227 14.012C18.8466 14.4582 18.6436 15.0817 18.7662 15.7227L19.8905 21.5998C20.0791 22.585 19.0403 23.3291 18.1706 22.8509L12.9293 19.9653C12.3583 19.6509 11.7009 19.6509 11.1299 19.9653L5.88864 22.8509C5.01885 23.3301 3.98006 22.585 4.16867 21.5998L5.29299 15.7227C5.41562 15.0817 5.21364 14.4582 4.73752 14.012L0.373154 9.91859C0.0340935 9.60119 -0.0833852 9.14054 0.0598687 8.69946C0.342234 7.82967 1.14607 7.88431 1.96536 7.78123V7.77814L6.96951 7.14957Z" fill="#87343A"/>
</g>
<g opacity="0.9" filter="url(#filter1_n_163_2)">
<path fill-rule="evenodd" clip-rule="evenodd" d="M37.0457 7.14957C37.6898 7.06816 38.2215 6.6848 38.4987 6.09635L41.0431 0.680931C41.4698 -0.226977 42.7415 -0.226977 43.1692 0.680931L45.7136 6.09635C46.2278 7.19181 47.2037 7.1578 48.2198 7.28559V7.2825L52.17 7.77922V7.78231L53.1027 7.8998C54.1136 8.02655 54.4774 9.24981 53.7632 9.9207L49.3989 14.012C48.9228 14.4582 48.7198 15.0817 48.8424 15.7227L49.9667 21.5998C50.1553 22.585 49.1165 23.3291 48.2467 22.8509L43.0054 19.9653C42.4345 19.6509 41.777 19.6509 41.2061 19.9653L35.9648 22.8509C35.095 23.3301 34.0562 22.585 34.2448 21.5998L35.3692 15.7227C35.4918 15.0817 35.2898 14.4582 34.8137 14.012L30.4493 9.91859C30.1103 9.60119 29.9928 9.14054 30.136 8.69946C30.4184 7.82967 31.2222 7.88431 32.0415 7.78123V7.77814L37.0457 7.14957Z" fill="#87343A"/>
</g>
<g opacity="0.9" filter="url(#filter2_n_163_2)">
<path fill-rule="evenodd" clip-rule="evenodd" d="M67.1218 7.14957C67.7659 7.06816 68.2977 6.6848 68.5749 6.09635L71.1193 0.680931C71.546 -0.226977 72.8177 -0.226977 73.2453 0.680931L75.7897 6.09635C76.304 7.19181 77.2799 7.1578 78.296 7.28559V7.2825L82.2462 7.77922V7.78231L83.1788 7.8998C84.1898 8.02655 84.5536 9.24981 83.8394 9.9207L79.4751 14.012C78.9989 14.4582 78.7959 15.0817 78.9186 15.7227L80.0429 21.5998C80.2315 22.585 79.1927 23.3291 78.3229 22.8509L73.0816 19.9653C72.5107 19.6509 71.8532 19.6509 71.2823 19.9653L66.041 22.8509C65.1712 23.3301 64.1324 22.585 64.321 21.5998L65.4453 15.7227C65.568 15.0817 65.366 14.4582 64.8899 14.012L60.5255 9.91859C60.1864 9.60119 60.069 9.14054 60.2122 8.69946C60.4946 7.82967 61.2984 7.88431 62.1177 7.78123V7.77814L67.1218 7.14957Z" fill="#87343A"/>
</g>
<g opacity="0.9" filter="url(#filter3_n_163_2)">
<path fill-rule="evenodd" clip-rule="evenodd" d="M97.2 7.14957C97.8441 7.06816 98.3758 6.6848 98.653 6.09635L101.197 0.680931C101.624 -0.226977 102.896 -0.226977 103.323 0.680931L105.868 6.09635C106.382 7.19181 107.358 7.1578 108.374 7.28559V7.2825L112.324 7.77922V7.78231L113.257 7.8998C114.268 8.02655 114.632 9.24981 113.918 9.9207L109.553 14.012C109.077 14.4582 108.874 15.0817 108.997 15.7227L110.121 21.5998C110.31 22.585 109.271 23.3291 108.401 22.8509L103.16 19.9653C102.589 19.6509 101.931 19.6509 101.36 19.9653L96.1191 22.8509C95.2493 23.3301 94.2105 22.585 94.3991 21.5998L95.5235 15.7227C95.6461 15.0817 95.4441 14.4582 94.968 14.012L90.6036 9.91859C90.2646 9.60119 90.1471 9.14054 90.2903 8.69946C90.5727 7.82967 91.3765 7.88431 92.1958 7.78123V7.77814L97.2 7.14957Z" fill="#87343A"/>
</g>
<g opacity="0.9" filter="url(#filter4_n_163_2)">
<path fill-rule="evenodd" clip-rule="evenodd" d="M127.276 7.14957C127.92 7.06816 128.452 6.6848 128.729 6.09635L131.274 0.680931C131.7 -0.226977 132.972 -0.226977 133.4 0.680931L135.944 6.09635C136.458 7.19181 137.434 7.1578 138.45 7.28559V7.2825L142.4 7.77922V7.78231L143.333 7.8998C144.344 8.02655 144.708 9.24981 143.994 9.9207L139.629 14.012C139.153 14.4582 138.95 15.0817 139.073 15.7227L140.197 21.5998C140.386 22.585 139.347 23.3291 138.477 22.8509L133.236 19.9653C132.665 19.6509 132.008 19.6509 131.437 19.9653L126.195 22.8509C125.325 23.3301 124.287 22.585 124.475 21.5998L125.6 15.7227C125.722 15.0817 125.52 14.4582 125.044 14.012L120.68 9.91859C120.341 9.60119 120.223 9.14054 120.367 8.69946C120.649 7.82967 121.453 7.88431 122.272 7.78123V7.77814L127.276 7.14957Z" fill="#87343A"/>
</g>
<defs>
<filter id="filter0_n_163_2" x="0" y="0" width="24.0586" height="23" filterUnits="userSpaceOnUse" color-interpolation-filters="sRGB">
<feFlood flood-opacity="0" result="BackgroundImageFix"/>
<feBlend mode="normal" in="SourceGraphic" in2="BackgroundImageFix" result="shape"/>
<feTurbulence type="fractalNoise" baseFrequency="2 2" stitchTiles="stitch" numOctaves="3" result="noise" seed="4937" />
<feColorMatrix in="noise" type="luminanceToAlpha" result="alphaNoise" />
<feComponentTransfer in="alphaNoise" result="coloredNoise1">
<feFuncA type="discrete" tableValues="0 0 0 0 0 0 0 0 0 0 0 0 1 1 1 1 1 1 1 1 1 1 1 1 1 1 1 1 1 1 1 1 1 1 1 1 1 1 0 0 0 0 0 0 0 0 0 0 0 0 0 0 0 0 0 0 0 0 0 0 0 0 0 0 0 0 0 0 0 0 0 0 0 0 0 0 0 0 0 0 0 0 0 0 0 0 0 0 0 0 0 0 0 0 0 0 0 0 0 0 "/>
</feComponentTransfer>
<feComposite operator="in" in2="shape" in="coloredNoise1" result="noise1Clipped" />
<feFlood flood-color="rgba(254, 247, 236, 0.5)" result="color1Flood" />
<feComposite operator="in" in2="noise1Clipped" in="color1Flood" result="color1" />
<feMerge result="effect1_noise_163_2">
<feMergeNode in="shape" />
<feMergeNode in="color1" />
</feMerge>
</filter>
<filter id="filter1_n_163_2" x="30.0762" y="0" width="24.0586" height="23" filterUnits="userSpaceOnUse" color-interpolation-filters="sRGB">
<feFlood flood-opacity="0" result="BackgroundImageFix"/>
<feBlend mode="normal" in="SourceGraphic" in2="BackgroundImageFix" result="shape"/>
<feTurbulence type="fractalNoise" baseFrequency="2 2" stitchTiles="stitch" numOctaves="3" result="noise" seed="4937" />
<feColorMatrix in="noise" type="luminanceToAlpha" result="alphaNoise" />
<feComponentTransfer in="alphaNoise" result="coloredNoise1">
<feFuncA type="discrete" tableValues="0 0 0 0 0 0 0 0 0 0 0 0 1 1 1 1 1 1 1 1 1 1 1 1 1 1 1 1 1 1 1 1 1 1 1 1 1 1 0 0 0 0 0 0 0 0 0 0 0 0 0 0 0 0 0 0 0 0 0 0 0 0 0 0 0 0 0 0 0 0 0 0 0 0 0 0 0 0 0 0 0 0 0 0 0 0 0 0 0 0 0 0 0 0 0 0 0 0 0 0 "/>
</feComponentTransfer>
<feComposite operator="in" in2="shape" in="coloredNoise1" result="noise1Clipped" />
<feFlood flood-color="rgba(254, 247, 236, 0.5)" result="color1Flood" />
<feComposite operator="in" in2="noise1Clipped" in="color1Flood" result="color1" />
<feMerge result="effect1_noise_163_2">
<feMergeNode in="shape" />
<feMergeNode in="color1" />
</feMerge>
</filter>
<filter id="filter2_n_163_2" x="60.1523" y="0" width="24.0586" height="23" filterUnits="userSpaceOnUse" color-interpolation-filters="sRGB">
<feFlood flood-opacity="0" result="BackgroundImageFix"/>
<feBlend mode="normal" in="SourceGraphic" in2="BackgroundImageFix" result="shape"/>
<feTurbulence type="fractalNoise" baseFrequency="2 2" stitchTiles="stitch" numOctaves="3" result="noise" seed="8624" />
<feColorMatrix in="noise" type="luminanceToAlpha" result="alphaNoise" />
<feComponentTransfer in="alphaNoise" result="coloredNoise1">
<feFuncA type="discrete" tableValues="0 0 0 0 0 0 0 0 0 0 0 0 1 1 1 1 1 1 1 1 1 1 1 1 1 1 1 1 1 1 1 1 1 1 1 1 1 1 0 0 0 0 0 0 0 0 0 0 0 0 0 0 0 0 0 0 0 0 0 0 0 0 0 0 0 0 0 0 0 0 0 0 0 0 0 0 0 0 0 0 0 0 0 0 0 0 0 0 0 0 0 0 0 0 0 0 0 0 0 0 "/>
</feComponentTransfer>
<feComposite operator="in" in2="shape" in="coloredNoise1" result="noise1Clipped" />
<feFlood flood-color="rgba(254, 247, 236, 0.5)" result="color1Flood" />
<feComposite operator="in" in2="noise1Clipped" in="color1Flood" result="color1" />
<feMerge result="effect1_noise_163_2">
<feMergeNode in="shape" />
<feMergeNode in="color1" />
</feMerge>
</filter>
<filter id="filter3_n_163_2" x="90.2305" y="0" width="24.0586" height="23" filterUnits="userSpaceOnUse" color-interpolation-filters="sRGB">
<feFlood flood-opacity="0" result="BackgroundImageFix"/>
<feBlend mode="normal" in="SourceGraphic" in2="BackgroundImageFix" result="shape"/>
<feTurbulence type="fractalNoise" baseFrequency="2 2" stitchTiles="stitch" numOctaves="3" result="noise" seed="4937" />
<feColorMatrix in="noise" type="luminanceToAlpha" result="alphaNoise" />
<feComponentTransfer in="alphaNoise" result="coloredNoise1">
<feFuncA type="discrete" tableValues="0 0 0 0 0 0 0 0 0 0 0 0 1 1 1 1 1 1 1 1 1 1 1 1 1 1 1 1 1 1 1 1 1 1 1 1 1 1 0 0 0 0 0 0 0 0 0 0 0 0 0 0 0 0 0 0 0 0 0 0 0 0 0 0 0 0 0 0 0 0 0 0 0 0 0 0 0 0 0 0 0 0 0 0 0 0 0 0 0 0 0 0 0 0 0 0 0 0 0 0 "/>
</feComponentTransfer>
<feComposite operator="in" in2="shape" in="coloredNoise1" result="noise1Clipped" />
<feFlood flood-color="rgba(254, 247, 236, 0.5)" result="color1Flood" />
<feComposite operator="in" in2="noise1Clipped" in="color1Flood" result="color1" />
<feMerge result="effect1_noise_163_2">
<feMergeNode in="shape" />
<feMergeNode in="color1" />
</feMerge>
</filter>
<filter id="filter4_n_163_2" x="120.307" y="0" width="24.0586" height="23" filterUnits="userSpaceOnUse" color-interpolation-filters="sRGB">
<feFlood flood-opacity="0" result="BackgroundImageFix"/>
<feBlend mode="normal" in="SourceGraphic" in2="BackgroundImageFix" result="shape"/>
<feTurbulence type="fractalNoise" baseFrequency="2 2" stitchTiles="stitch" numOctaves="3" result="noise" seed="4937" />
<feColorMatrix in="noise" type="luminanceToAlpha" result="alphaNoise" />
<feComponentTransfer in="alphaNoise" result="coloredNoise1">
<feFuncA type="discrete" tableValues="0 0 0 0 0 0 0 0 0 0 0 0 1 1 1 1 1 1 1 1 1 1 1 1 1 1 1 1 1 1 1 1 1 1 1 1 1 1 0 0 0 0 0 0 0 0 0 0 0 0 0 0 0 0 0 0 0 0 0 0 0 0 0 0 0 0 0 0 0 0 0 0 0 0 0 0 0 0 0 0 0 0 0 0 0 0 0 0 0 0 0 0 0 0 0 0 0 0 0 0 "/>
</feComponentTransfer>
<feComposite operator="in" in2="shape" in="coloredNoise1" result="noise1Clipped" />
<feFlood flood-color="rgba(254, 247, 236, 0.5)" result="color1Flood" />
<feComposite operator="in" in2="noise1Clipped" in="color1Flood" result="color1" />
<feMerge result="effect1_noise_163_2">
<feMergeNode in="shape" />
<feMergeNode in="color1" />
</feMerge>
</filter>
</defs>
</svg>
